<svg width="56" height="57" viewBox="0 0 56 57" fill="none" xmlns="http://www.w3.org/2000/svg">
<rect y="0.461426" width="56" height="56" rx="28" fill="url(#paint0_linear_80_4283)" fill-opacity="0.21"/>
<path d="M29.2336 16.4619C30.5835 16.4655 31.2687 16.4727 31.8603 16.4895L32.0931 16.4979C32.3619 16.5075 32.627 16.5195 32.9474 16.5339C34.2242 16.5939 35.0953 16.7955 35.8597 17.0919C36.6516 17.3967 37.3188 17.8094 37.986 18.4754C38.5964 19.0751 39.0685 19.8007 39.3695 20.6017C39.6659 21.3661 39.8675 22.2372 39.9275 23.5152C39.9419 23.8343 39.9539 24.0995 39.9635 24.3695L39.9707 24.6023C39.9887 25.1927 39.9959 25.8778 39.9983 27.2278L39.9995 28.1229V29.6948C40.0024 30.5701 39.9932 31.4453 39.9719 32.3203L39.9647 32.5531C39.9551 32.8231 39.9431 33.0883 39.9287 33.4075C39.8687 34.6854 39.6647 35.5553 39.3695 36.3209C39.0685 37.1219 38.5964 37.8476 37.986 38.4472C37.3863 39.0576 36.6607 39.5298 35.8597 39.8307C35.0953 40.1271 34.2242 40.3287 32.9474 40.3887L32.0931 40.4247L31.8603 40.4319C31.2687 40.4487 30.5835 40.4571 29.2336 40.4595L28.3385 40.4607H26.7677C25.8921 40.4638 25.0165 40.4546 24.1411 40.4331L23.9083 40.4259C23.6234 40.4151 23.3386 40.4027 23.0539 40.3887C21.7772 40.3287 20.906 40.1271 20.1405 39.8307C19.3399 39.5296 18.6147 39.0575 18.0154 38.4472C17.4045 37.8477 16.932 37.122 16.6307 36.3209C16.3343 35.5566 16.1327 34.6854 16.0727 33.4075L16.0367 32.5531L16.0307 32.3203C16.0086 31.4453 15.9986 30.5701 16.0007 29.6948V27.2278C15.9974 26.3525 16.0062 25.4773 16.0271 24.6023L16.0355 24.3695C16.0451 24.0995 16.0571 23.8343 16.0715 23.5152C16.1315 22.2372 16.3331 21.3673 16.6295 20.6017C16.9315 19.8004 17.4049 19.0747 18.0166 18.4754C18.6155 17.8653 19.3403 17.3932 20.1405 17.0919C20.906 16.7955 21.776 16.5939 23.0539 16.5339C23.3731 16.5195 23.6395 16.5075 23.9083 16.4979L24.1411 16.4907C25.0161 16.4694 25.8913 16.4602 26.7665 16.4631L29.2336 16.4619ZM28.0001 22.4616C26.4089 22.4616 24.8828 23.0937 23.7577 24.2189C22.6325 25.344 22.0004 26.8701 22.0004 28.4613C22.0004 30.0525 22.6325 31.5786 23.7577 32.7037C24.8828 33.8289 26.4089 34.461 28.0001 34.461C29.5913 34.461 31.1173 33.8289 32.2425 32.7037C33.3677 31.5786 33.9998 30.0525 33.9998 28.4613C33.9998 26.8701 33.3677 25.344 32.2425 24.2189C31.1173 23.0937 29.5913 22.4616 28.0001 22.4616ZM28.0001 24.8615C28.4728 24.8614 28.9409 24.9544 29.3777 25.1353C29.8145 25.3161 30.2114 25.5812 30.5457 25.9154C30.88 26.2496 31.1453 26.6464 31.3262 27.0832C31.5072 27.5199 31.6004 27.988 31.6005 28.4607C31.6006 28.9334 31.5075 29.4016 31.3267 29.8383C31.1459 30.2751 30.8808 30.672 30.5466 31.0063C30.2123 31.3407 29.8155 31.6059 29.3788 31.7869C28.9421 31.9679 28.474 32.061 28.0013 32.0611C27.0465 32.0611 26.1309 31.6819 25.4558 31.0068C24.7807 30.3317 24.4015 29.416 24.4015 28.4613C24.4015 27.5066 24.7807 26.5909 25.4558 25.9159C26.1309 25.2408 27.0465 24.8615 28.0013 24.8615M34.301 20.6617C33.9032 20.6617 33.5216 20.8197 33.2404 21.101C32.9591 21.3823 32.801 21.7638 32.801 22.1616C32.801 22.5594 32.9591 22.9409 33.2404 23.2222C33.5216 23.5035 33.9032 23.6616 34.301 23.6616C34.6988 23.6616 35.0803 23.5035 35.3616 23.2222C35.6429 22.9409 35.8009 22.5594 35.8009 22.1616C35.8009 21.7638 35.6429 21.3823 35.3616 21.101C35.0803 20.8197 34.6988 20.6617 34.301 20.6617Z" fill="url(#paint1_linear_80_4283)" fill-opacity="0.7"/>
<defs>
<linearGradient id="paint0_linear_80_4283" x1="24.3146" y1="0.407593" x2="25.3583" y2="56.395" gradientUnits="userSpaceOnUse">
<stop stop-color="white" stop-opacity="0.5"/>
<stop offset="1" stop-color="white" stop-opacity="0.1"/>
</linearGradient>
<linearGradient id="paint1_linear_80_4283" x1="28" y1="18.7028" x2="28" y2="40.4613" gradientUnits="userSpaceOnUse">
<stop offset="0.225" stop-color="#FBFDFF" stop-opacity="0.9"/>
<stop offset="1" stop-color="#F9FBFC"/>
</linearGradient>
</defs>
</svg>
