<svg width="56" height="57" viewBox="0 0 56 57" fill="none" xmlns="http://www.w3.org/2000/svg">
<rect y="0.461426" width="56" height="56" rx="28" fill="url(#paint0_linear_80_4281)" fill-opacity="0.21"/>
<path d="M36.307 20.836C34.787 20.1274 33.1412 19.6131 31.4269 19.3159C31.3968 19.3163 31.368 19.3287 31.3469 19.3502C31.1412 19.7274 30.9012 20.2188 30.7412 20.596C28.9228 20.3218 27.0736 20.3218 25.2553 20.596C25.0953 20.2074 24.8553 19.7274 24.6381 19.3502C24.6267 19.3273 24.5924 19.3159 24.5581 19.3159C22.8438 19.6131 21.2095 20.1274 19.678 20.836C19.6666 20.836 19.6551 20.8474 19.6437 20.8588C16.5351 25.5104 15.6779 30.0362 16.1008 34.5163C16.1008 34.5392 16.1122 34.5621 16.135 34.5735C18.1922 36.0821 20.1694 36.9964 22.1238 37.6021C22.1581 37.6136 22.1924 37.6021 22.2038 37.5793C22.6609 36.9507 23.0724 36.2878 23.4267 35.5907C23.4495 35.5449 23.4267 35.4992 23.381 35.4878C22.7295 35.2364 22.1124 34.9392 21.5066 34.5963C21.4609 34.5735 21.4609 34.5049 21.4952 34.4706C21.6209 34.3792 21.7466 34.2763 21.8723 34.1849C21.8952 34.162 21.9295 34.162 21.9524 34.1735C25.8839 35.9678 30.124 35.9678 34.0098 34.1735C34.0327 34.162 34.067 34.162 34.0898 34.1849C34.2155 34.2878 34.3413 34.3792 34.467 34.482C34.5127 34.5163 34.5127 34.5849 34.4556 34.6078C33.8612 34.9621 33.2327 35.2478 32.5812 35.4992C32.5355 35.5106 32.5241 35.5678 32.5355 35.6021C32.9012 36.2992 33.3127 36.9621 33.7584 37.5907C33.7927 37.6021 33.827 37.6136 33.8612 37.6021C35.827 36.9964 37.8042 36.0821 39.8614 34.5735C39.8843 34.5621 39.8957 34.5392 39.8957 34.5163C40.3986 29.339 39.0614 24.8475 36.3527 20.8588C36.3413 20.8474 36.3299 20.836 36.307 20.836ZM24.021 31.7848C22.8438 31.7848 21.8609 30.6991 21.8609 29.3619C21.8609 28.0247 22.8209 26.939 24.021 26.939C25.2324 26.939 26.1925 28.0362 26.181 29.3619C26.181 30.6991 25.221 31.7848 24.021 31.7848ZM31.9869 31.7848C30.8097 31.7848 29.8269 30.6991 29.8269 29.3619C29.8269 28.0247 30.7869 26.939 31.9869 26.939C33.1984 26.939 34.1584 28.0362 34.147 29.3619C34.147 30.6991 33.1984 31.7848 31.9869 31.7848Z" fill="url(#paint1_linear_80_4281)" fill-opacity="0.7"/>
<defs>
<linearGradient id="paint0_linear_80_4281" x1="24.3146" y1="0.407593" x2="25.3583" y2="56.395" gradientUnits="userSpaceOnUse">
<stop stop-color="white" stop-opacity="0.5"/>
<stop offset="1" stop-color="white" stop-opacity="0.1"/>
</linearGradient>
<linearGradient id="paint1_linear_80_4281" x1="28" y1="21.0238" x2="28" y2="37.6069" gradientUnits="userSpaceOnUse">
<stop offset="0.225" stop-color="#FBFDFF" stop-opacity="0.9"/>
<stop offset="1" stop-color="#F9FBFC"/>
</linearGradient>
</defs>
</svg>
