<svg width="56" height="57" viewBox="0 0 56 57" fill="none" xmlns="http://www.w3.org/2000/svg">
<rect y="0.461426" width="56" height="56" rx="28" fill="url(#paint0_linear_80_4297)" fill-opacity="0.21"/>
<path d="M22.3463 15.0885C23.2953 15.4088 24.1979 15.853 25.0305 16.4098C26.2071 16.1086 27.4171 15.9575 28.6317 15.9601C29.886 15.9601 31.0961 16.1167 32.2304 16.4085C33.0627 15.8523 33.9648 15.4085 34.9133 15.0885C35.7937 14.7891 37.048 14.3041 37.7933 15.1289C38.2985 15.6898 38.4249 16.6295 38.5145 17.347C38.6156 18.1478 38.6396 19.1912 38.3743 20.227C39.3886 21.5368 40 23.0994 40 24.8021C40 27.3814 38.603 29.621 36.5352 31.1721C35.5396 31.9084 34.436 32.4862 33.2637 32.8849C33.534 33.5039 33.6843 34.1885 33.6843 34.9072V38.6966C33.6843 39.0316 33.5512 39.3529 33.3143 39.5898C33.0774 39.8267 32.7562 39.9598 32.4211 39.9598H24.8423C24.5073 39.9598 24.186 39.8267 23.9491 39.5898C23.7122 39.3529 23.5791 39.0316 23.5791 38.6966V37.4449C22.3728 37.5927 21.3611 37.4613 20.5009 37.0962C19.6015 36.7148 18.975 36.1236 18.5038 35.5577C18.0567 35.0222 17.5691 33.8146 16.8643 33.5797C16.7069 33.5272 16.5613 33.4443 16.4359 33.3357C16.3106 33.227 16.2078 33.0947 16.1336 32.9463C15.9836 32.6467 15.9588 32.2997 16.0647 31.9818C16.1706 31.6639 16.3984 31.401 16.6981 31.2511C16.9977 31.1011 17.3447 31.0763 17.6626 31.1822C18.5038 31.4626 19.052 32.0689 19.4272 32.5565C20.0335 33.3397 20.5261 34.3628 21.4861 34.7708C21.8815 34.9388 22.4613 35.0487 23.3682 34.9249L23.5791 34.882C23.5821 34.1946 23.7252 33.5151 23.9998 32.8849C22.8274 32.4862 21.7238 31.9084 20.7282 31.1721C18.6605 29.621 17.2634 27.3827 17.2634 24.8021C17.2634 23.1019 17.8735 21.5406 18.8853 20.232C18.62 19.1962 18.6428 18.1504 18.7438 17.3483L18.7502 17.3003C18.8424 16.5651 18.9497 15.6999 19.4651 15.1289C20.2103 14.3041 21.4659 14.7904 22.3451 15.0898L22.3463 15.0885Z" fill="url(#paint1_linear_80_4297)" fill-opacity="0.7"/>
<defs>
<linearGradient id="paint0_linear_80_4297" x1="24.3146" y1="0.407593" x2="25.3583" y2="56.395" gradientUnits="userSpaceOnUse">
<stop stop-color="white" stop-opacity="0.5"/>
<stop offset="1" stop-color="white" stop-opacity="0.1"/>
</linearGradient>
<linearGradient id="paint1_linear_80_4297" x1="28" y1="17.0331" x2="28" y2="39.9598" gradientUnits="userSpaceOnUse">
<stop offset="0.225" stop-color="#FBFDFF" stop-opacity="0.9"/>
<stop offset="1" stop-color="#F9FBFC"/>
</linearGradient>
</defs>
</svg>
