<svg width="56" height="57" viewBox="0 0 56 57" fill="none" xmlns="http://www.w3.org/2000/svg">
<rect y="0.461426" width="56" height="56" rx="28" fill="url(#paint0_linear_80_4285)" fill-opacity="0.21"/>
<path d="M17.5 21.7948C19.1569 21.7948 20.5 20.6009 20.5 19.1281C20.5 17.6553 19.1569 16.4614 17.5 16.4614C15.8431 16.4614 14.5 17.6553 14.5 19.1281C14.5 20.6009 15.8431 21.7948 17.5 21.7948Z" fill="url(#paint1_linear_80_4285)" fill-opacity="0.7"/>
<path d="M17.5 27.1279V40.4613" stroke="url(#paint2_linear_80_4285)" stroke-opacity="0.7" stroke-width="4" stroke-linecap="round" stroke-linejoin="round"/>
<path d="M26.5 27.1279V40.4613" stroke="url(#paint3_linear_80_4285)" stroke-opacity="0.7" stroke-width="4" stroke-linecap="round" stroke-linejoin="round"/>
<path d="M26.5 33.7946C26.5 30.1146 29.86 27.1279 34 27.1279C38.14 27.1279 41.5 30.1146 41.5 33.7946V40.4613" stroke="url(#paint4_linear_80_4285)" stroke-opacity="0.7" stroke-width="4" stroke-linecap="round" stroke-linejoin="round"/>
<defs>
<linearGradient id="paint0_linear_80_4285" x1="24.3146" y1="0.407593" x2="25.3583" y2="56.395" gradientUnits="userSpaceOnUse">
<stop stop-color="white" stop-opacity="0.5"/>
<stop offset="1" stop-color="white" stop-opacity="0.1"/>
</linearGradient>
<linearGradient id="paint1_linear_80_4285" x1="17.5" y1="16.9594" x2="17.5" y2="21.7948" gradientUnits="userSpaceOnUse">
<stop offset="0.225" stop-color="#FBFDFF" stop-opacity="0.9"/>
<stop offset="1" stop-color="#F9FBFC"/>
</linearGradient>
<linearGradient id="paint2_linear_80_4285" x1="18" y1="28.3729" x2="18" y2="40.4613" gradientUnits="userSpaceOnUse">
<stop offset="0.225" stop-color="#FBFDFF" stop-opacity="0.9"/>
<stop offset="1" stop-color="#F9FBFC"/>
</linearGradient>
<linearGradient id="paint3_linear_80_4285" x1="27" y1="28.3729" x2="27" y2="40.4613" gradientUnits="userSpaceOnUse">
<stop offset="0.225" stop-color="#FBFDFF" stop-opacity="0.9"/>
<stop offset="1" stop-color="#F9FBFC"/>
</linearGradient>
<linearGradient id="paint4_linear_80_4285" x1="34" y1="28.3729" x2="34" y2="40.4613" gradientUnits="userSpaceOnUse">
<stop offset="0.225" stop-color="#FBFDFF" stop-opacity="0.9"/>
<stop offset="1" stop-color="#F9FBFC"/>
</linearGradient>
</defs>
</svg>
