<svg width="56" height="57" viewBox="0 0 56 57" fill="none" xmlns="http://www.w3.org/2000/svg">
<rect y="0.461426" width="56" height="56" rx="28" fill="url(#paint0_linear_80_4295)" fill-opacity="0.21"/>
<path d="M39.9945 25.9727C40.0484 24.4123 39.7071 22.8635 39.0024 21.4702C38.5243 20.8985 37.8607 20.5127 37.1273 20.38C34.0939 20.104 31.0479 19.9912 28.0024 20.0421C24.968 19.9908 21.9331 20.1 18.9102 20.3691C18.3126 20.4778 17.7596 20.7581 17.3186 21.1759C16.3374 22.0807 16.2284 23.6288 16.1193 24.937C15.9602 27.2891 15.9602 29.6493 16.1193 32.0014C16.1513 32.7377 16.2609 33.4686 16.4464 34.1818C16.5779 34.7324 16.8438 35.2419 17.2204 35.6645C17.6644 36.1043 18.2304 36.4006 18.8448 36.5148C21.1951 36.8056 23.5634 36.9258 25.931 36.8746C29.7467 36.9291 33.0936 36.8746 37.051 36.5693C37.6801 36.4608 38.2616 36.1643 38.719 35.719C39.0238 35.4134 39.2518 35.0397 39.384 34.6288C39.7735 33.4323 39.965 32.1803 39.9509 30.9221C39.9945 30.3116 39.9945 26.6268 39.9945 25.9727ZM25.5386 31.5763V24.828L31.9925 28.2185C30.1828 29.2215 27.7953 30.3552 25.5386 31.5763Z" fill="url(#paint1_linear_80_4295)" fill-opacity="0.7"/>
<defs>
<linearGradient id="paint0_linear_80_4295" x1="24.3146" y1="0.407593" x2="25.3583" y2="56.395" gradientUnits="userSpaceOnUse">
<stop stop-color="white" stop-opacity="0.5"/>
<stop offset="1" stop-color="white" stop-opacity="0.1"/>
</linearGradient>
<linearGradient id="paint1_linear_80_4295" x1="28" y1="21.6044" x2="28" y2="36.8932" gradientUnits="userSpaceOnUse">
<stop offset="0.225" stop-color="#FBFDFF" stop-opacity="0.9"/>
<stop offset="1" stop-color="#F9FBFC"/>
</linearGradient>
</defs>
</svg>
