<svg width="120" height="121" viewBox="0 0 120 121" fill="none" xmlns="http://www.w3.org/2000/svg">
<rect y="0.461426" width="120" height="120" rx="60" fill="#F3BA2F"/>
<path d="M64.5118 75.9497V81.2022L59.9327 83.8958L55.4882 81.2022V75.9497L59.9327 78.6433L64.5118 75.9497ZM40 57.7678L44.4444 60.4614V69.485L52.1212 74.0641V79.3167L40 72.1786V57.7678ZM79.8653 57.7678V72.1786L67.6094 79.3167V74.0641L75.2862 69.485V60.4614L79.8653 57.7678ZM67.6094 50.6298L72.1885 53.3234V58.5759L64.5118 63.155V72.3133L60.0673 75.0069L55.6229 72.3133V63.155L47.6768 58.5759V53.3234L52.2559 50.6298L59.9327 55.2089L67.6094 50.6298ZM47.6768 62.347L52.1212 65.0406V70.2931L47.6768 67.5995V62.347ZM72.1885 62.347V67.5995L67.7441 70.2931V65.0406L72.1885 62.347ZM44.4444 46.0507L49.0236 48.7443L44.4444 51.4379V56.6904L40 53.9968V48.7443L44.4444 46.0507ZM75.4209 46.0507L80 48.7443V53.9968L75.4209 56.6904V51.4379L70.9764 48.7443L75.4209 46.0507ZM59.9327 46.0507L64.5118 48.7443L59.9327 51.4379L55.4882 48.7443L59.9327 46.0507ZM59.9327 37.0271L72.1885 44.1651L67.7441 46.8587L60.0673 42.2796L52.2559 46.8587L47.8114 44.1651L59.9327 37.0271Z" fill="white"/>
</svg>
