<svg width="120" height="121" viewBox="0 0 120 121" fill="none" xmlns="http://www.w3.org/2000/svg">
<rect y="0.461426" width="120" height="120" rx="60" fill="#A45C06"/>
<path d="M59.2084 71.6437C58.8666 71.0522 58.5548 70.4439 58.2742 69.8211C58.8999 69.4657 59.4802 69.0358 60.0025 68.5408C60.5388 69.0499 61.1157 69.4767 61.7334 69.8211C61.452 70.444 61.1393 71.0523 60.7967 71.6437C60.5031 72.1392 60.2384 72.5312 60.0025 72.8197C59.7108 72.4466 59.4454 72.0537 59.2084 71.6437Z" fill="white"/>
<path d="M44.0629 32.4614L49.2404 37.4836C52.6674 36.1367 56.3178 35.4484 60 35.4549C63.7062 35.4549 67.2545 36.1396 70.5 37.3818L74.3055 32.4614H88V63.0069H87.9796C87.3942 77.2894 74.952 88.4614 60 88.4614C45.048 88.4614 32.6033 77.2894 32.0204 63.0069H32V32.4614H44.0629ZM44.4422 39.9196L41.9985 37.5523H37.0909V46.716C39.1047 44.0197 41.5964 41.716 44.4422 39.9196ZM82.9091 37.5523H76.8051L75.1633 39.6752C78.1723 41.5044 80.8019 43.8946 82.9091 46.716V37.5523ZM52.3636 60.4614V52.8251H47.2727V60.4614H52.3636ZM72.7273 60.4614V52.8251H67.6364V60.4614H72.7273ZM62.2782 63.1418L60.0025 58.5854L57.7269 63.1418C56.7622 65.0687 55.5455 65.6491 54.6978 65.7203C54.0933 65.761 53.4933 65.591 53 65.2392L50.8949 63.8087L48.0313 68.0189L50.1364 69.4494C51.0451 70.068 52.0505 70.4905 53.1044 70.6891C53.56 71.8065 54.1455 73.0716 54.8149 74.2171C55.324 75.0825 55.9425 75.9912 56.668 76.7167C57.3298 77.3785 58.4676 78.2796 60.0025 78.2796C61.5349 78.2796 62.6753 77.376 63.3371 76.7167C64.0625 75.9912 64.6811 75.0825 65.1902 74.2171C65.8596 73.0716 66.4451 71.8065 66.8982 70.6891C67.9545 70.4905 68.96 70.068 69.8687 69.4494L71.9713 68.0189L69.1102 63.8087L67.0051 65.2392C66.512 65.5935 65.9103 65.7637 65.3047 65.7203C64.4596 65.6491 63.2429 65.0687 62.2782 63.1418Z" fill="white"/>
</svg>
