<svg width="120" height="121" viewBox="0 0 120 121" fill="none" xmlns="http://www.w3.org/2000/svg">
<rect y="0.461426" width="120" height="120" rx="60" fill="#E6007A"/>
<path d="M70.4841 36.8357C70.4841 40.2125 65.7804 42.9586 59.9848 42.9586C54.1891 42.9586 49.4824 40.2125 49.4824 36.8357C49.4824 33.4589 54.2129 30.7098 59.9848 30.7098C65.7566 30.7098 70.4841 33.4589 70.4841 36.8357ZM70.4841 84.0872C70.4841 87.464 65.7804 90.213 59.9848 90.213C54.1891 90.213 49.4824 87.464 49.4824 84.0872C49.4824 80.7103 54.2129 77.9643 59.9848 77.9643C65.7566 77.9643 70.4841 80.7103 70.4841 84.0872ZM44.8471 51.9673C47.8223 46.8441 47.8402 41.2955 44.9186 39.6145C41.9761 37.9186 37.2159 40.7183 34.2437 45.8474C31.2685 50.9707 31.2685 56.5223 34.1693 58.2003C37.1088 59.8813 41.869 57.0935 44.8471 51.9673ZM85.7675 62.7047C88.7069 64.3648 88.6891 69.8094 85.7288 74.8463C82.7566 79.8862 77.9785 82.6174 75.0569 80.9573C72.0996 79.2912 72.1145 73.8496 75.0718 68.8067C78.0469 63.7698 82.828 61.0416 85.7675 62.7047ZM44.9334 80.99C47.8729 79.3239 47.858 73.8824 44.8799 68.8454C41.9255 63.8055 37.1445 61.0743 34.208 62.7374C31.2507 64.4184 31.2655 69.8421 34.2437 74.879C37.201 79.9219 41.9791 82.671 44.9186 81.0049L44.9334 80.99ZM85.7645 45.8683C88.7367 50.9915 88.7367 56.5253 85.8151 58.2033C82.8935 59.9021 78.1154 57.1203 75.1372 51.9763C72.1978 46.8471 72.168 41.3193 75.0867 39.6353C78.0261 37.9395 82.7864 40.7212 85.7645 45.8683Z" fill="white"/>
</svg>
