<svg width="120" height="121" viewBox="0 0 120 121" fill="none" xmlns="http://www.w3.org/2000/svg">
<rect y="0.461426" width="120" height="120" rx="60" fill="#A52FF3"/>
<path fill-rule="evenodd" clip-rule="evenodd" d="M41.5004 56.3486H73.4376C73.8373 56.3486 74.2036 56.5151 74.5033 56.8148L79.5653 62.01C80.4978 62.9758 79.8317 64.6076 78.4996 64.6076H46.5624C46.1627 64.6076 45.7964 64.4411 45.4967 64.1414L40.4347 58.9462C39.5022 57.9804 40.1683 56.3486 41.5004 56.3486ZM40.4347 49.4549L45.4967 44.2597C45.7631 43.96 46.1627 43.7935 46.5624 43.7935H78.4663C79.7984 43.7935 80.4645 45.4253 79.532 46.3911L74.5033 51.5863C74.2369 51.886 73.8373 52.0525 73.4376 52.0525H41.5004C40.1683 52.0525 39.5022 50.4207 40.4347 49.4549ZM79.532 71.468L74.47 76.6632C74.1703 76.9629 73.804 77.1294 73.4043 77.1294H41.5004C40.1683 77.1294 39.5022 75.4976 40.4347 74.5318L45.4967 69.3366C45.7631 69.0369 46.1627 68.8704 46.5624 68.8704H78.4663C79.7984 68.8704 80.4645 70.5022 79.532 71.468Z" fill="white"/>
</svg>
